<?xml version="1.0" encoding="UTF-8"?>
<svg version="1.1" xmlns="http://www.w3.org/2000/svg" width="458" height="197">
<path d="M0 0 C11.6325 -0.0928125 11.6325 -0.0928125 23.5 -0.1875 C25.93310547 -0.21481201 28.36621094 -0.24212402 30.87304688 -0.27026367 C32.82160955 -0.27903315 34.77017775 -0.286676 36.71875 -0.29296875 C38.21196777 -0.3159906 38.21196777 -0.3159906 39.73535156 -0.33947754 C45.87295285 -0.34176314 50.43475333 0.3431071 56 3 C59.62906206 6.90822068 60.72938652 10.62513009 61.10546875 15.8203125 C60.90314392 20.0016923 59.04367434 22.84036184 56.3125 25.875 C55.879375 26.24625 55.44625 26.6175 55 27 C55.94875 27.721875 56.8975 28.44375 57.875 29.1875 C61.82678527 32.51482863 62.83492546 35.217195 63.3125 40.375 C62.87619903 45.43609123 61.35827473 49.18896703 58.3125 53.25 C51.64336824 58.29691052 44.7458732 58.41672781 36.71875 58.29296875 C35.78321289 58.28994751 34.84767578 58.28692627 33.88378906 58.28381348 C30.42241221 58.2682356 26.96119385 58.22635247 23.5 58.1875 C15.745 58.125625 7.99 58.06375 0 58 C0 38.86 0 19.72 0 0 Z M22 15 C22 17.31 22 19.62 22 22 C24.4377963 22.05397335 26.87439685 22.09365616 29.3125 22.125 C30.34793945 22.15013672 30.34793945 22.15013672 31.40429688 22.17578125 C35.17135396 22.21217794 36.78431704 22.14378864 40 20 C39.65213292 18.02463255 39.65213292 18.02463255 39 16 C35.93466836 14.46733418 32.73245728 14.89723529 29.375 14.9375 C28.31539062 14.94426758 28.31539062 14.94426758 27.234375 14.95117188 C25.48954725 14.96296125 23.744763 14.98089676 22 15 Z M22 36 C22 38.64 22 41.28 22 44 C24.0622048 44.054348 26.12482816 44.09294961 28.1875 44.125 C29.33605469 44.14820313 30.48460937 44.17140625 31.66796875 44.1953125 C34.94619756 44.00315372 37.11068327 43.52963827 40 42 C40.88693303 39.95894361 40.88693303 39.95894361 41 38 C37.20836973 35.47224649 34.19125969 35.77556965 29.8125 35.875 C28.68811523 35.88853516 28.68811523 35.88853516 27.54101562 35.90234375 C25.69387346 35.92587422 23.84689588 35.96174439 22 36 Z " fill="#000000" transform="translate(61,68)"/>
<path d="M0 0 C21 0 21 0 25.1875 3.1875 C26.15955632 4.77096565 27.09253118 6.37865571 28 8 C29.6509403 10.23283489 31.39613253 12.38973836 33.125 14.5625 C36.52716785 18.96755319 39.76300692 23.46820969 43 28 C43.33 18.76 43.66 9.52 44 0 C50.93 0 57.86 0 65 0 C65 19.14 65 38.28 65 58 C57.74 58 50.48 58 43 58 C36.02821246 51.02821246 36.02821246 51.02821246 34.33984375 47.9140625 C32.04411316 43.94737011 29.30349211 40.58240558 26.3125 37.125 C24.889375 35.43375 23.46625 33.7425 22 32 C21.67 40.58 21.34 49.16 21 58 C14.07 58 7.14 58 0 58 C0 38.86 0 19.72 0 0 Z " fill="#000000" transform="translate(232,68)"/>
<path d="M0 0 C5.93953878 5.2117692 8.60697105 12.12869689 9.23046875 19.8984375 C9.54492458 29.21038763 8.01214994 36.48047367 3.3515625 44.546875 C-4.80768093 52.06196763 -13.89333365 55.12803438 -24.8359375 55.046875 C-25.62983887 55.04123535 -26.42374023 55.0355957 -27.24169922 55.02978516 C-36.98768495 54.82844653 -44.93075138 52.76387461 -52.0234375 45.734375 C-59.07871658 36.7402406 -60.17538431 26.81446972 -59.0234375 15.734375 C-57.61020453 9.76060105 -54.9455145 3.61270799 -50.0234375 -0.265625 C-34.39515309 -9.49065399 -15.26831917 -10.89823488 0 0 Z M-31.0234375 11.734375 C-35.1473372 16.20193301 -36.3246865 19.5640954 -36.24609375 25.671875 C-35.82665138 29.55723593 -33.94409106 32.39942734 -31.7734375 35.546875 C-28.92102432 37.48244109 -26.42322712 37.61714088 -23.0234375 37.734375 C-18.82632589 36.0173748 -16.82100364 33.86877713 -15.0234375 29.734375 C-13.49954749 23.49814818 -13.89032074 19.32922635 -17.0234375 13.734375 C-18.83828412 11.14173698 -19.80524017 10.79603946 -22.8984375 9.921875 C-26.3864577 9.71259379 -28.01134712 9.9905332 -31.0234375 11.734375 Z " fill="#000000" transform="translate(218.0234375,73.265625)"/>
<path d="M0 0 C5.37430786 3.38765133 9.15556603 8.43640846 10.5859375 14.65234375 C10.70710938 15.39484375 10.82828125 16.13734375 10.953125 16.90234375 C7.8929846 17.43772247 4.82978784 17.95303245 1.765625 18.46484375 C0.90130859 18.61630859 0.03699219 18.76777344 -0.85351562 18.92382812 C-9.12752478 20.28697906 -9.12752478 20.28697906 -13.046875 18.90234375 C-15.234375 16.90234375 -15.234375 16.90234375 -17.046875 14.90234375 C-19.8267566 13.51240295 -21.9655076 13.71746171 -25.046875 13.90234375 C-27.5765224 14.82480916 -28.75804367 15.42466117 -30.1640625 17.75 C-32.13403923 23.5076124 -32.49515341 28.20494819 -30.046875 33.90234375 C-27.62254134 36.71560794 -25.99713141 37.81787651 -22.234375 38.15234375 C-18.60522344 37.86770441 -16.90391335 37.12448469 -14.046875 34.90234375 C-13.33781291 33.59106454 -12.66373601 32.25943797 -12.046875 30.90234375 C-4.33416453 32.03869921 3.32595467 33.2839374 10.953125 34.90234375 C9.9246877 41.47740921 6.86209775 46.64406227 1.578125 50.74609375 C-9.27166131 57.49413158 -20.64247199 58.24408737 -33.05859375 56.47265625 C-40.28556894 54.63471279 -46.6078209 50.68607922 -50.68359375 44.36328125 C-55.38378921 35.2322425 -56.69306008 25.86238017 -54.29296875 15.71484375 C-50.97308034 6.13273446 -46.12872154 1.33282969 -37.046875 -3.09765625 C-24.65684863 -7.41295469 -11.46889857 -6.15030629 0 0 Z " fill="#000000" transform="translate(390.046875,71.09765625)"/>
<path d="M0 0 C7.92 0 15.84 0 24 0 C24 19.14 24 38.28 24 58 C16.08 58 8.16 58 0 58 C0 38.86 0 19.72 0 0 Z " fill="#000000" transform="translate(305,68)"/>
<path d="M0 0 C7.92 0 15.84 0 24 0 C24 19.14 24 38.28 24 58 C16.08 58 8.16 58 0 58 C0 38.86 0 19.72 0 0 Z " fill="#000000" transform="translate(129,68)"/>
</svg>
